<?xml version="1.0" encoding="UTF-8"?>
<svg width="69px" height="66px" viewBox="0 0 69 66" version="1.1" xmlns="http://www.w3.org/2000/svg" xmlns:xlink="../../external.html?link=http://www.w3.org/1999/xlink">
    <!-- Generator: Sketch 53 (72520) - https://sketchapp.com -->
    <title>illustration</title>
    <desc>Created with Sketch.</desc>
    <g id="Page-1" stroke="none" stroke-width="1" fill="none" fill-rule="evenodd">
        <g id="2" transform="translate(-740.000000, -95.000000)" fill-rule="nonzero">
            <g id="illustration" transform="translate(740.000000, 95.000000)">
                <path d="M44.6421914,64.4746518 L44.5130859,64.4746518 L43.2183926,57.7697733 L41.7547031,58.0475344 L42.9960293,64.4746518 C42.3506367,64.4746518 41.8276113,64.9932996 41.8276113,65.6329919 L41.8276113,65.9519028 L47.7055488,65.9519028 C47.7055488,65.1358543 47.038459,64.4745182 46.2153105,64.4745182 L44.6421914,64.4746518 Z" id="Path" fill="#F14284"></path>
                <path d="M47.0398066,14.3404372 C47.058,14.388 47.0761934,14.4356964 47.0943867,14.4848623 L46.9834746,14.5242753 C46.6274238,14.635834 46.2467109,14.6966235 45.8525215,14.6966235 C43.7728184,14.6966235 42.0856875,13.0256478 42.0856875,10.9638826 C42.0856875,9.19110121 43.3325391,7.70877328 45.0030937,7.32640081 C44.8126699,6.87989879 44.7083613,6.39077733 44.7083613,5.87533603 C44.7083613,3.81357085 46.393875,2.14259514 48.4735781,2.14259514 C49.3494199,2.14259514 50.1558574,2.43972874 50.794916,2.9371336 C51.18075,1.28245749 52.6758398,0.048097166 54.4624277,0.048097166 C56.5421309,0.048097166 58.2276445,1.72080972 58.2276445,3.7824413 C58.2276445,4.80677733 57.8136445,5.73251417 57.1398164,6.40721053 C55.8052324,5.51260324 56.0138496,9.10746559 54.3283359,9.32082996 C52.9705723,9.49317814 52.0631953,10.5732267 51.0996211,11.3727085 C48.899168,13.1962591 51.5136211,13.7527166 47.0398066,14.3404372 Z" id="Path" fill="#F14284"></path>
                <path d="M67.2120645,9.48489474 L61.7661855,12.1490769 L60.0773027,12.9747449 C60.2081602,12.085081 56.2409297,11.8142672 55.9842012,10.880247 C55.7342109,9.96920648 59.2179023,8.48206883 58.6466309,7.77944939 C58.6467656,7.77931579 63.2382305,7.02258704 67.2120645,9.48489474 Z" id="Path" fill="#F14284"></path>
                <path d="M66.695373,15.0856761 C68.0861543,15.9129474 68.1308965,17.8974899 66.776502,18.7855506 C66.2665488,19.1187571 65.6886738,19.2812186 65.114168,19.2812186 C64.4635195,19.2812186 63.8161055,19.0727976 63.2845898,18.668915 C62.9666777,18.314332 59.6600684,20.922668 59.3207285,20.5894615 C58.4083652,19.6867045 57.3652793,19.7408138 56.3154551,19.0054615 C56.6813437,18.3258219 55.8716719,11.6582186 55.9843359,10.8801134 L61.7663203,12.1489433 L66.695373,15.0856761 Z" id="Path" fill="#F14284"></path>
                <path d="M50.5648711,55.8126194 C50.5648711,55.8126194 45.611291,58.2829433 44.1372246,61.2453279 C43.7912813,61.9404656 42.8366016,62.065251 42.3235488,61.480336 C41.1009551,60.086587 39.7193379,57.8165344 41.0707676,55.6404049 L41.0707676,55.6388016 C43.8143262,49.5371417 53.6662324,50.275834 50.5648711,55.8126194 Z" id="Path" fill="#E6E6E6"></path>
                <g id="Group" transform="translate(0.000000, 15.497976)" fill="#F14284">
                    <path d="M12.8315742,0.122781377 C19.7327871,0.303279352 25.1802832,5.9977166 24.9982148,12.8394049 C24.9534727,14.5252105 24.5693906,16.1224372 23.915373,17.5717652 C22.153582,13.0412794 17.7790898,9.77307692 12.5783496,9.63680162 C7.37760937,9.50052632 2.83587305,12.5357247 0.833929688,16.9677449 C0.257671875,15.485417 -0.0402949219,13.8702874 0.00444726563,12.1844818 C0.186515625,5.34265992 5.93036133,-0.0577165992 12.8315742,0.122781377 Z" id="Path"></path>
                    <path d="M24.4121191,16.9972713 C19.5159492,17.1187166 14.9410605,20.1030121 13.0635059,24.9141984 C11.1841992,29.7237814 12.5403457,34.9846761 16.077,38.3431943 C14.4758496,38.3826073 12.8416816,38.1183401 11.2553555,37.5093765 C4.81611914,35.038919 1.6171875,27.8606842 4.11075586,21.4785911 C6.60270703,15.0948947 13.8433945,11.9235547 20.2810137,14.3938785 C21.8672051,15.0028421 23.2563691,15.8990526 24.4121191,16.9972713 Z" id="Path"></path>
                </g>
                <path d="M23.4376289,32.3533603 C23.4610781,31.9381215 23.8742695,31.6544818 24.275332,31.7763279 C26.4544922,32.4391336 33.0737754,33.9174534 42.0723457,30.9882024 C51.2303437,28.007247 48.3708867,17.9153927 47.094252,14.4847287 C47.0760586,14.4354291 47.0578652,14.3878664 47.0396719,14.3403036 C46.0296035,11.6794615 46.7449395,8.63451012 48.9455273,6.81082591 C49.9092363,6.01147773 51.1112109,5.46477328 52.4689746,5.2924251 C54.1544883,5.07906073 55.8053672,5.51233603 57.1399512,6.40694332 C57.7062363,6.78610931 58.2161895,7.2474413 58.6467656,7.77918219 C59.2180371,8.48180162 59.6534648,9.30412955 59.9034551,10.21517 C60.1600488,11.1491903 60.2081602,12.0848138 60.0773027,12.9744777 C59.9647734,13.752583 59.7164004,14.4978219 59.350377,15.1773279 C60.4000664,15.9126802 61.3869551,16.7334049 62.2993184,17.6362955 L62.8292168,18.2436559 C62.9682949,18.4029109 63.1205801,18.5457328 63.2845898,18.6687814 C65.8692598,21.5610243 67.7369766,25.1477368 68.5548691,29.2087409 C71.0252578,41.4804656 62.9650605,53.4124372 50.5650059,55.8123522 C47.3263184,56.4393522 44.104207,56.3442267 41.0707676,55.6384008 C32.7290449,53.7047611 25.812873,47.166753 23.9120039,38.3732551 C23.4744199,36.3450243 23.3259082,34.3254777 23.4376289,32.3533603 Z" id="Path" fill="#E9E1F0"></path>
                <path d="M68.5548691,29.2090081 C67.7369766,25.148004 65.8692598,21.5612915 63.2845898,18.6690486 C63.1207148,18.546 62.9682949,18.4031781 62.8292168,18.2439231 L62.2993184,17.6365628 C61.3869551,16.7338057 60.4002012,15.9129474 59.350377,15.1775951 C59.7162656,14.4979555 59.9646387,13.7528502 60.0773027,12.9747449 C60.2081602,12.085081 60.1600488,11.1494575 59.9034551,10.2154372 C59.6534648,9.30439676 59.2179023,8.48206883 58.6467656,7.77944939 C58.2163242,7.2475749 57.7062363,6.78637652 57.1399512,6.40721053 C55.8053672,5.51260324 54.154623,5.07919433 52.4689746,5.29269231 C52.119123,5.33718219 51.7800527,5.40732389 51.4523027,5.49937652 C52.153084,5.69831174 52.8158613,6.006 53.4147598,6.40734413 C53.9810449,6.78651012 54.490998,7.24784211 54.9215742,7.779583 C55.4928457,8.48220243 55.9282734,9.30453036 56.1782637,10.2155709 C56.4348574,11.1495911 56.4829687,12.0852146 56.3521113,12.9748785 C56.3395781,13.0613198 56.3254277,13.1473603 56.3095254,13.2328664 C56.075707,14.4962186 56.5077656,15.7812146 57.4831992,16.6262551 C57.8575781,16.9506437 58.2213105,17.2874575 58.574127,17.6364291 L59.1040254,18.2437895 C59.2431035,18.4030445 59.3953887,18.5458664 59.5593984,18.668915 C62.1440684,21.5611579 64.0117852,25.1478704 64.8296777,29.2088745 C67.3000664,41.4805992 59.2398691,53.4125709 46.8398145,55.8124858 C46.0130273,55.9725425 45.1875879,56.0850364 44.3657871,56.1527733 C46.3945488,56.3192429 48.4762734,56.2169028 50.5651406,55.8124858 C62.9649258,53.4125709 71.025123,41.4807328 68.5548691,29.2090081 Z" id="Path" fill="#E6E6E6"></path>
                <path d="M50.3177109,34.9918907 C57.0034336,29.8243846 65.4939375,38.9039271 59.685,45.0250931 C59.607375,45.1068583 59.5277285,45.1882227 59.4461953,45.2691862 C55.4723613,49.2087449 41.6036309,51.3676397 31.7948496,43.4635385 C31.7948496,43.4635385 42.5573672,41.8220891 46.3655742,38.0465951 L50.3177109,34.9918907 Z" id="Path" fill="#F14284"></path>
                <ellipse id="Oval" fill="#4D4D4D" cx="55.650252" cy="11.0445789" rx="1.24186523" ry="1.23115385"></ellipse>
            </g>
        </g>
    </g>
</svg>