<svg xmlns="http://www.w3.org/2000/svg" xmlns:xlink="http://www.w3.org/1999/xlink" width="327" height="240"><style><![CDATA[.B{fill-rule:nonzero}.C{fill:#24192c}.D{fill:#382b44}.E{stroke-linecap:round}.F{stroke-linejoin:round}.G{fill-opacity:.177}]]></style><defs><path d="M12.335.564h22.242a.8.8 0 0 1 .692 1.202L24.548 20.21a.8.8 0 0 1-.692.398H1.614a.8.8 0 0 1-.692-1.202L11.643.962a.8.8 0 0 1 .692-.398z" id="A"/><path d="M12.335.564h22.242a.8.8 0 0 1 .692 1.202L24.548 20.21a.8.8 0 0 1-.692.398H1.614a.8.8 0 0 1-.692-1.202L11.643.962a.8.8 0 0 1 .692-.398z" id="B"/><path id="C" d="M178.8 88.643c-1.467.932-2.533 1.465-3.2 1.598-1 .2-2 .8-1.6 1.198s1.66-.104 1.66 0-2.86 1.398-2.06 2.397 6.4-2.197 6.6-2.796c.133-.4-.333-1.2-1.4-2.397z"/><path id="D" d="M21.117 7.026l19.262 11.12a.8.8 0 0 1-.002 1.387L21.872 30.146a.8.8 0 0 1-.798-.001L1.81 19.023a.8.8 0 0 1 .002-1.387L20.32 7.025a.8.8 0 0 1 .798.001z"/><path id="E" d="M-2.6 10.176l13.385-3.25a.8.8 0 0 1 .946 1.034L8.6 17.167l10.545-3.39a.8.8 0 0 1 1.033.896L18.8 22.76"/></defs><g fill="none" fill-rule="evenodd" opacity=".996"><g class="B"><path d="M3.478 86.167l138.225-81.43a5.2 5.2 0 0 1 5.235-.026l78.504 45.226a5.2 5.2 0 0 1 .043 8.986L87.26 140.354a5.2 5.2 0 0 1-5.235.026L3.522 95.153a5.2 5.2 0 0 1-.044-8.986z" class="C"/><path d="M3.478 82.572l138.225-81.43a5.2 5.2 0 0 1 5.235-.026l78.504 45.226a5.2 5.2 0 0 1 .043 8.986L87.26 136.76a5.2 5.2 0 0 1-5.235.025L3.522 91.558a5.2 5.2 0 0 1-.044-8.986z" fill="#2c1f35"/><path d="M168.278 184.433l138.225-81.43a5.2 5.2 0 0 1 5.235-.025l78.504 45.226a5.2 5.2 0 0 1 .043 8.986L252.06 238.62a5.2 5.2 0 0 1-5.235.026l-78.504-45.226a5.2 5.2 0 0 1-.044-8.986z" class="C"/><path d="M167.865 180.56L306.09 99.13a5.2 5.2 0 0 1 5.235-.026l78.504 45.226a5.2 5.2 0 0 1 .044 8.986l-138.224 81.43a5.2 5.2 0 0 1-5.236.026l-78.504-45.226a5.2 5.2 0 0 1-.043-8.986z" fill="#2c1f35"/><path d="M230.674 151.658l25.25 15.575a.28.28 0 0 1-.03.492l-4.3 2a.28.28 0 0 1-.265-.016l-25.25-15.574a.28.28 0 0 1 .03-.493l4.3-2a.28.28 0 0 1 .265.016zm-9.6 6.782l53.7 33.8a.28.28 0 0 1-.032.49l-4.314 2a.28.28 0 0 1-.267-.017l-53.7-33.8a.28.28 0 0 1 .032-.49l4.314-2a.28.28 0 0 1 .267.017zm-12 7.99l53.7 33.8a.28.28 0 0 1-.032.49l-4.314 2.002a.28.28 0 0 1-.267-.018l-53.7-33.8a.28.28 0 0 1 .032-.49l4.314-2a.28.28 0 0 1 .267.017z" class="C"/><path d="M140.66 17.86c-7.544 0-13.66 3.863-13.66 8.628s6.116 8.628 13.66 8.628 13.662-3.863 13.662-8.628H140.66V17.86z" fill="#101010"/><path d="M140.66 15.863c-7.544 0-13.66 3.863-13.66 8.628s6.116 8.628 13.66 8.628 13.662-3.863 13.662-8.628H140.66v-8.628z" class="C"/><path d="M155.4 23.772c0-4.765-6.116-8.628-13.66-8.628v8.628h13.66zm-44.01 6.142l63.567 36.7a.4.4 0 0 1 0 .692l-8.587 5a.4.4 0 0 1-.401 0l-63.567-36.7a.4.4 0 0 1-.001-.693l8.588-4.998a.4.4 0 0 1 .4-.001zm-19.6 12.782l63.567 36.7a.4.4 0 0 1 0 .693l-8.587 5a.4.4 0 0 1-.401 0L82.8 48.388a.4.4 0 0 1-.001-.692l8.588-5a.4.4 0 0 1 .4 0l.002-.001z" class="D"/><ellipse fill="#4b79ff" cx="164.2" cy="120" rx="2.8" ry="1.798"/><ellipse fill="#fff" cx="164.2" cy="119.202" rx="2.8" ry="1.798"/><path d="M192.613 54.044c-.686-.296-1.165-.585-1.437-.867-.408-.424-.32-.8-.315-.995s-.826-.232-.94-.8.346-.85.603-1.332 1.845-.983 2.215-.993 5.628.036 6.944.735c.877.466 1.427 1.414 1.65 2.842.334-.098.706-.004 1.116.283.615.43 1.466 1.606.93 3.802s-3.1 5.84-5.278 7.162c-1.453.88-3.283-2.395-5.49-9.827z" fill="#474c59"/><use xlink:href="#C" fill="#e9e1f0"/><path d="M194.706 136.523h2.8v4.793h-2.8v-4.793zm-9.2 0h2.8v4.793h-2.8v-4.793z" fill="#ffbfb6"/><path d="M185.6 140.118c-.397 0 0 .097-.596.388s-3.58 1.32-3.678 2.094 2.278 1.167 2.884.968 4.263-.404 4.3-.588c.1-.484.398-2.614.1-2.808s-.523.624-1.816.624c-.485 0-.795-.678-1.193-.678h-.001z" fill="#0c2c8a"/><path d="M190 67.87c-1 2.09-1.916 7.132-4.964 12.383-3.656 6.3-6.236 8.2-6.836 8.59s1.2 3.195 1.8 2.996 11.8-7.4 15.2-14.78.2-10.186-1.2-10.785-1.8-2.996-4 1.597z" fill="#502e77"/><path d="M192.68 52.558c.26-.006 2.85.2 3.313.775s-.14 3.564.2 4.14.652.246 1.357-.222 2.202.085 1.575 1.393-1.794 1.33-2.043 1.983.623 1.744.586 2.637l-.14 1.74-4.945-.17.004-1.656c-1.335.156-2.137-.02-2.403-.534-.4-.768-.3-2.842-.5-3.162s-1.175-.623-.923-1.146 1.385-1.304 1.654-1.976.866-2.736 1.25-3.134.767-.663 1.026-.668z" fill="#eae2f1"/><path d="M185.045 95.434c-.73 8.04-1.13 15.684-1.2 22.932-.102 10.87 1.2 18.81 1.2 19.48s3.997 1.008 3.997 0 .5-16.373.8-19.144L191 107.417l3.038 30.43c.265.92 3.943 1.2 4.162 0s-.7-16.34-.664-18.053c.001-.102.657-.227.664-.392.106-2.58 1-12.92 1-19.573v-4.994l-14.155.6z" fill="#502e76"/><path d="M192.146 64.1l-1.87-.084.623 1.932c-2.254 6.747-3.554 12.052-3.9 15.914-.833 9.3-2.7 15.867-3 17.976-.52 3.526 3.15.844 8.146 3.195 2.97 1.398 7.296 3.995 7.654-2.396s.958-14.53.958-22.17-1.466-10.645-1.758-12.183c-.195-1.026-.645-1.64-1.35-1.848l-5.504-.336z" fill="#6c2cb4"/><path d="M259.95 138.036l2.228 1.286c.078.045.126.128.127.217s-.047.173-.125.22l-14.607 8.626a.25.25 0 0 1-.254 0l-2.228-1.285c-.078-.045-.126-.128-.127-.217s.047-.173.125-.22l14.607-8.626a.25.25 0 0 1 .254 0v-.001zm3.132 5.74l2.227 1.286c.078.045.126.128.126.218s-.048.173-.126.218l-11.208 6.557c-.078.045-.175.045-.253 0l-2.227-1.285c-.078-.045-.126-.128-.126-.218a.25.25 0 0 1 .125-.218l11.2-6.557c.078-.045.175-.045.253 0zm3.068 6.637l2.224 1.284c.078.045.126.13.126.22s-.05.173-.127.218l-7.425 4.233a.25.25 0 0 1-.25-.001l-2.224-1.284c-.078-.045-.126-.128-.126-.22s.048-.174.126-.218l7.426-4.233a.25.25 0 0 1 .25.001zm14.718.545l2.228 1.286c.077.045.125.127.126.217a.25.25 0 0 1-.124.218l-14.607 8.626c-.078.046-.175.046-.254.001l-2.228-1.286c-.077-.045-.125-.127-.126-.217a.25.25 0 0 1 .124-.218l14.607-8.626c.078-.046.175-.046.254-.001zm3.132 5.74l2.227 1.285c.078.045.126.128.126.218s-.048.173-.126.218l-11.208 6.557c-.078.045-.175.045-.253 0l-2.227-1.285c-.078-.045-.126-.128-.126-.218a.25.25 0 0 1 .125-.218l11.2-6.557c.078-.045.175-.045.253 0zm3.07 6.636l2.223 1.284c.078.045.126.13.126.22s-.05.173-.127.218l-7.425 4.233c-.077.044-.173.044-.25 0l-2.224-1.284a.25.25 0 0 1-.127-.22c0-.092.05-.174.127-.22l7.426-4.232c.077-.044.173-.044.25 0zm14.716-.89l2.228 1.287c.077.045.125.127.126.217a.25.25 0 0 1-.124.218l-14.607 8.626c-.078.046-.175.046-.254.001l-2.228-1.286c-.077-.045-.125-.127-.126-.217a.25.25 0 0 1 .124-.218l14.607-8.626c.078-.046.175-.047.254-.002zm3.132 5.74l2.227 1.286c.078.045.126.128.126.218a.25.25 0 0 1-.125.218l-11.2 6.557c-.078.045-.175.045-.253 0l-2.227-1.285c-.078-.045-.126-.128-.126-.218a.25.25 0 0 1 .125-.218l11.2-6.557c.078-.045.175-.045.253 0v-.001zm3.07 6.637l2.223 1.284c.078.045.126.13.126.22s-.05.173-.127.218l-7.425 4.233a.25.25 0 0 1-.25-.001l-2.224-1.284c-.078-.045-.126-.128-.126-.22s.048-.174.126-.22l7.426-4.233a.25.25 0 0 1 .25.001z" class="C"/></g><g transform="translate(266.4 109.613)"><use xlink:href="#D" class="B C"/><g transform="translate(3 8)"><mask id="F" fill="#fff"><use xlink:href="#A"/></mask><use xlink:href="#E" mask="url(#F)" class="B D"/></g><ellipse cx="21.4" cy="17.577" rx="3.2" ry="1.798" class="B D"/></g><g transform="translate(292.8 125.192)"><use xlink:href="#D" class="B C"/><g transform="translate(3 8)"><mask id="G" fill="#fff"><use xlink:href="#B"/></mask><use xlink:href="#E" mask="url(#G)" class="B D"/></g><ellipse cx="21.4" cy="17.577" rx="3.2" ry="1.798" class="B D"/></g><path d="M170.6 156.55l-12.8 7.4c-26-11.917-39.857-20.67-41.6-26.26s7.724-10.95 28.4-16.082l26 34.952z" fill-opacity=".377" fill="#c7c7c7" opacity=".158" class="B"/><path d="M167.2 137.376l9.52-6.07a5.2 5.2 0 0 0-.117-8.841l-72.836-43.773a15.6 15.6 0 0 0-17.856 1.25l-2.1 1.71" stroke="#3a2747" stroke-width="2.4" class="E F"/><g class="B"><path fill="#f24285" d="M143 115.606l27.4 15.58v25.365L143 141.172z"/><path d="M56.102 66.867l65.092 34.585.002 2.658a.4.4 0 0 1-.187.339l-12.374 7.807a2.4 2.4 0 0 1-2.486.045L43.62 75.958a.4.4 0 0 1-.198-.372l.182-2.75 12.134-5.974a.4.4 0 0 1 .364.006v-.001z" fill="#319cba"/><path d="M57.436 64.412l63.577 36.706a.4.4 0 0 1 .009.687l-12.277 7.527a2.4 2.4 0 0 1-2.454.032l-62.546-36.11a.4.4 0 0 1-.01-.687l13.292-8.15a.4.4 0 0 1 .409-.005z" fill="#52d9ff"/></g><g opacity=".8" stroke="#fff" stroke-width=".5"><ellipse cx="79" cy="85.185" rx="2.365" ry="1.469"/><ellipse cx="79" cy="85.087" rx="4.533" ry="2.742"/><ellipse cx="79" cy="85.248" rx="6.8" ry="4.194"/></g><g class="B"><path fill="#761145" d="M170.4 130.985l28-16.377v25.564l-28 16.377z"/><ellipse stroke="#4b79ff" stroke-width="3.2" fill="#3590ff" cx="226" cy="197.294" rx="7.8" ry="4.793"/></g><g stroke-width="2.4" class="F"><path d="M155.8 137.177l-3.914 3.086a6.8 6.8 0 0 0 .53 11.059L218.6 193.9" stroke="#3a2747" class="E"/><ellipse stroke="#21aad1" cx="225.6" cy="198.493" rx="11" ry="6.791"/></g><g class="B"><ellipse fill="#52d9ff" cx="225.6" cy="197.113" rx="12" ry="7.408"/><path fill="#f24285" d="M171.26 99.098l27.242 15.728L170.4 131.2l-27.312-15.603z"/></g><g stroke-width="1.6" class="E F"><path d="M154.6 115.806c5.1-.347 8.843.186 11.2 1.598s3.3 3.542 2.8 6.39" stroke-opacity=".058" stroke="#000"/><path d="M155 115.406c4.843-.88 8.443-.613 10.8.8s3.423 3.808 3.2 7.2" stroke="#fff"/></g><g class="B"><ellipse fill="#000" cx="155" cy="116.405" rx="2.8" ry="1.798" class="G"/><ellipse fill="#fff" cx="155" cy="115.606" rx="2.8" ry="1.798"/><ellipse fill="#000" cx="169" cy="124.394" rx="2.8" ry="1.798" class="G"/><ellipse fill="#fff" cx="169" cy="123.595" rx="2.8" ry="1.798"/><path fill="#e61245" d="M170.2 108.308l6.8-3.487 6.8 3.624-6.8 3.697z"/><g fill="#d10033"><path d="M170.2 108.308l6.8 3.834v2.466l-6.8-3.795z"/><path d="M177 112.142l6.8-3.697v2.328l-6.8 3.835v-2.466zm.84-10.48v7.352h-1.96v-7.456a2.78 2.78 0 0 1-1.68-2.547 2.79 2.79 0 0 1 2.8-2.78 2.79 2.79 0 0 1 2.8 2.78c-.003 1.217-.797 2.29-1.96 2.65z"/></g><use xlink:href="#C" x="2.4" y="5.992" fill="#e9e1f0"/><path d="M193 71.267c-1 2.088-2.116 8.93-5.164 14.18-3.656 6.3-7.236 9.188-7.836 9.587s1.2 3.196 1.8 2.996 12.8-8.388 16.2-15.778 1.4-13.78 0-14.38-2.8-1.2-5 3.395z" fill="#502e77"/></g><g opacity=".8" stroke="#fff" stroke-width=".5"><ellipse cx="225.4" cy="196.232" rx="2.365" ry="1.469"/><ellipse cx="225.4" cy="196.134" rx="4.533" ry="2.742"/><ellipse cx="225.4" cy="196.295" rx="6.8" ry="4.194"/></g></g></svg>