<svg xmlns="http://www.w3.org/2000/svg" xmlns:xlink="http://www.w3.org/1999/xlink" width="262" height="416"><style><![CDATA[.B{fill-rule:nonzero}.C{fill:#fff}.D{opacity:.2}.E{stroke-linecap:round}.F{stroke-linejoin:round}.G{stroke:#4c4c4c}.H{fill:#24192c}.I{fill:#2c1f35}.J{fill:#0e1823}.K{stroke-width:.5}.L{fill:#3d2a4a}.M{fill:#535353}.N{fill:#d3def8}.O{fill:#502e77}.P{fill:#343434}.Q{stroke:#d3def8}]]></style><defs><path id="A" d="M5.918.003L.003 5.85l1.562 1.546L7.418 1.56z"/><path d="M.902.913c-.13.198-.134.38-.013.548s.308.18.56.036c-.128.213-.123.393.016.54s.32.152.543.014c-.165.228-.174.396-.03.504s.295.08.45-.082L3.046.83 2.54.313.902.913z" id="B"/><linearGradient x1="0%" y1="17.361%" x2="100%" y2="78.858%" id="C"><stop stop-color="#a1b5e5" offset="0%"/><stop stop-color="#d3def8" offset="100%"/></linearGradient><linearGradient x1="17.722%" y1="2.548%" x2="84.203%" y2="87.24%" id="D"><stop stop-color="#f2f6ff" offset="0%"/><stop stop-color="#d3def8" offset="100%"/></linearGradient><path id="E" d="M30.083.017L.017 29.757l7.938 7.867 29.753-29.7z"/><path d="M1 3.7C.34 4.708.317 5.636.934 6.486s1.566.91 2.845.184c-.65 1.085-.623 2.002.083 2.75s1.626.772 2.762.067c-.838 1.163-.888 2.02-.15 2.566s1.5.41 2.283-.42L11.9 3.282 9.32.648 1 3.7z" id="F"/><rect id="G" width="12.774" height="44.358" rx="1.092"/><rect id="H" width="12.774" height="44.358" rx="1.092"/><rect id="I" width="12.774" height="44.358" rx="1.092"/><rect id="J" width="12.774" height="44.358" rx="1.092"/><rect id="K" width="12.774" height="44.358" rx="1.092"/><rect id="L" width="12.774" height="44.358" rx="1.092"/><rect id="M" width="12.774" height="44.358" rx="1.092"/><rect id="N" width="12.774" height="44.358" rx="1.092"/><rect id="O" width="12.774" height="44.358" rx="1.092"/><path d="M6.24 0h5.754a.78.78 0 0 1 .78.78v14.98H0V6.24A6.24 6.24 0 0 1 6.24 0z" id="P"/><path id="Q" d="M30.083.017L.017 29.757l7.938 7.867 29.753-29.7z"/><path d="M1 3.7C.34 4.708.317 5.636.934 6.486s1.566.91 2.845.184c-.65 1.085-.623 2.002.083 2.75s1.626.772 2.762.067c-.838 1.163-.888 2.02-.15 2.566s1.5.41 2.283-.42L11.9 3.282 9.32.648 1 3.7z" id="R"/><path d="M1.727 18.77a45.24 45.24 0 0 0-.872-8.846C-.008 5.623 4.507.743 5.53.28c1.063-.48-.014 3.157.338 7.018.196 2.15 1.4 3.307 1.3 5.276s-1.528.834-1.7 3.343l-.165 3.035-3.565-.18z" id="S"/><path d="M3.4 0c.954.604 2.206.725 3.757.363 4.77 33.6 4.114 50.415-1.968 50.415S-1.49 33.852 3.398 0z" id="T"/><path d="M3.4 0c.954.604 2.206.725 3.757.363 4.77 33.6 4.114 50.415-1.968 50.415S-1.49 33.852 3.398 0z" id="U"/><path id="V" d="M30.083.017L.017 29.757l7.938 7.867 29.753-29.7z"/><path id="W" d="M35.84 6.055L5.772 35.795l7.938 7.867 29.753-29.7z"/><path id="X" d="M30 5.7c-.66 1.007-.683 1.935-.066 2.785s1.566.91 2.845.184c-.65 1.085-.623 2.002.083 2.75s1.626.772 2.762.067c-.838 1.163-.888 2.02-.15 2.566s1.5.41 2.283-.42L40.9 5.282l-2.58-2.634L30 5.7z"/><path id="Y" d="M6.458 9.605L13.322-.878l-4.5 13.083c-1.587.817-2.58.934-2.977.353s-.193-1.566.612-2.953z"/><path id="Z" d="M3.4 0c.954.604 2.206.725 3.757.363 4.77 33.6 4.114 50.415-1.968 50.415S-1.49 33.852 3.398 0z"/></defs><g transform="translate(-215)" fill="none" fill-rule="evenodd" opacity=".996"><g class="B"><path d="M173.402 143.362l242.916 125.736 41.014 28.472c8.575 5.952 10.7 17.73 4.748 26.304a18.9 18.9 0 0 1-5.577 5.292L326.87 409.418a39.42 39.42 0 0 1-41.652-.095L20.04 243.482c-8.85-5.535-11.537-17.196-6.003-26.046a18.9 18.9 0 0 1 7.01-6.59L144.48 143.86a31.32 31.32 0 0 1 28.923-.498z" fill="#2e1f3a"/><path d="M175.104 121.75l279.5 170.133c8.916 5.428 11.744 17.055 6.317 25.972a18.9 18.9 0 0 1-6.498 6.426l-129.01 76.565a39.42 39.42 0 0 1-40.615-.227l-275.35-167.6C.54 227.59-2.29 215.963 3.138 207.047a18.9 18.9 0 0 1 6.499-6.427l133.198-79.05a31.32 31.32 0 0 1 32.269.18z" class="H"/><path d="M190.23 146.473L447.827 299.7a11.56 11.56 0 0 1 4.024 15.84c-1.052 1.77-2.558 3.225-4.36 4.217l-122.716 67.52c-10.286 5.66-22.8 5.45-32.9-.553L44.12 239.346a15.88 15.88 0 0 1-5.528-21.76c1.445-2.43 3.514-4.43 5.99-5.794l119.514-65.758a26.31 26.31 0 0 1 26.132.439z" class="I"/><path d="M254.64 142.004c1.778-.853 2.93-1.56 3.46-2.122.794-.842 1.016.716 1.116.778s3.112-.296 3.6 1.074-6.75 3.07-7.447 2.903c-.464-.11-.704-1-.72-2.633z" class="N"/><path d="M255.372 136.098l.284.826 2.085-.718-.284-.826a.24.24 0 0 0-.307-.15l-1.63.56a.24.24 0 0 0-.15.307h.001z" fill="#083fb5"/></g><g transform="matrix(.898794 .438371 .438371 -.898794 252.147226 143.625066)"><g transform="translate(0 1.923)"><path d="M5.918.003L.003 5.85l1.562 1.546L7.418 1.56z" fill="#4b79ff" class="B"/><mask id="a" class="C"><use xlink:href="#A"/></mask><path mask="url(#a)" d="M7.05 1.2L1.137 7.036l1.56 1.546 5.854-5.836z" class="B D J"/></g><g class="B"><path fill="#000" d="M7.52 1.317l.826-.314-.32.844z"/><path d="M5.902 1.913c-.13.198-.134.38-.013.548s.308.18.56.036c-.128.213-.123.393.016.54s.32.152.543.014c-.165.228-.174.396-.03.504s.295.08.45-.082l.618-1.643-.506-.517-1.638.6z" fill="#f7e0bc"/></g><g transform="translate(5 1)"><mask id="b" class="C"><use xlink:href="#B"/></mask><path d="M1.976 2.074l1.35-2.06-.885 2.57c-.312.16-.508.184-.586.07s-.038-.308.12-.58z" mask="url(#b)" class="B D J"/></g></g><g class="B"><path d="M259.03 142.52c-2.273-.75-3.234-1.36-2.885-1.836s1.4-.25 3.147.672l-.262 1.164z" fill="url(#C)" transform="matrix(-1 0 0 1 515.366726 0)"/><path d="M254.572 142.015c.68.453 1.366 2.885 1.05 2.885s-5.507 2.097-9.702 1.048-13.373-8.915-11.013-12.323c.815-1.178 3.176-1.7 6.03 0 1.945 1.157 2.885 3.933 6.294 6.293s7.056 1.908 7.34 2.097z" class="O"/><g transform="matrix(-.945519 -.325568 -.325568 .945519 252.856456 117.269327)"><path d="M8.55 6.224c-.78-.336-1.324-.664-1.632-.984-.463-.48-.362-.896-.36-1.128s-.937-.264-1.067-.92.392-.962.683-1.5S8.268.57 8.688.56s6.386.044 7.88.838c.995.53 1.62 1.604 1.876 3.223.378-.1.8-.004 1.266.322.698.488 1.665 1.822 1.06 4.3s-3.513 6.62-5.985 8.116c-1.647.998-3.726-2.717-6.236-11.145h.001z" fill="#474c59"/><path d="M8.62 4.536c.294-.007 3.235.23 3.76.88s-.156 4.042.22 4.695.74.28 1.538-.25 2.497.1 1.787 1.58-2.033 1.508-2.315 2.248.71 1.98.666 2.99l-.154 1.974-5.6-.198.004-1.878c-1.516.176-2.424-.026-2.727-.608-.454-.873-.344-3.224-.57-3.588s-1.332-.708-1.048-1.3 1.57-1.477 1.875-2.24.98-3.103 1.413-3.552.87-.75 1.162-.757v.001z" fill="#e9e1f0"/></g><path d="M260.522 159.074c.7-5.943.874-10.925.524-14.945l-4.007-8.155c.175 6.467 0 11.71-.525 15.732l4.008 7.368z" fill="url(#D)" transform="matrix(-.939693 -.34202 -.34202 .939693 552.578812 97.434554)"/><path d="M250.077 151.843c1.778-.852 2.93-1.56 3.46-2.12.794-.844 1.97-1.447 2.114-.822s-1.098 1.537-1 1.6 3.113-.296 3.59 1.074-6 3.224-6.705 3.056c-.464-.11-.95-1.04-1.46-2.787zm-17.902 63.245h-3.18v5.432h3.18v-5.432z" class="N"/><path d="M232.08 219.162c.45 0 0 .1.677.44s4.063 1.494 4.176 2.372-2.373 1.097-3.275 1.097-4.84-.458-4.88-.666c-.113-.548-.452-2.962-.113-3.182s.593.707 2.06.707c.552 0 .904-.768 1.356-.768z" fill="#000"/><path d="M242.62 215.088h-3.18v5.432h3.18z" class="N"/><path d="M242.522 219.162c.452 0 0 .1.678.44s4.063 1.494 4.176 2.372-2.47 1.133-3.275 1.097-4.84-.458-4.882-.666c-.113-.548-.45-2.962-.113-3.182s.594.707 2.062.707c.55 0 .903-.768 1.354-.768z" fill="#000"/><path d="M243.37 169.284c.83 9.357 1.283 18 1.36 25.96.117 11.926-1.36 20.634-1.36 21.37s-4.538 1.106-4.538 0 .087-17.8-.253-20.85c-.227-2.026-1.254-6.92-3.083-14.683l-.294 15.728-2.042 19.805c-.3 1.01-4.475 1.305-4.724 0s.782-17.926.754-19.805-1.435-13.453-2.4-20.185c-.302-2.085-.478-4.187-.525-6.293l17.115-1.05z" class="O"/><path d="M238.727 131.63l2.122-.095-.707 2.19 2.893 17.943c1.31 9.7 1.05 11.324 1.05 17.093s-3.115 1.268-8.785 3.933c-3.37 1.584-9.308 2.097-9.308-2.884s-.077-10.644 1.05-20.452 4.126-15.563 4.457-17.305c.22-1.162.645-2 1.27-2.515l5.96 2.093z" fill="#6c2cb4"/><path d="M238.054 139.393c1.402 2.18.2 1.916 3.67 7.866 4.15 7.14 9.807 3.218 10.488 3.67s1.104 2.87.317 3.395-8.97 3.16-13.95.014-10.75-14.16-8.4-17.568 5.243-1.455 7.866 2.622z" class="O"/></g><g transform="translate(233 228)"><path stroke="#979797" stroke-width=".6" fill="#6c4687" opacity=".037" d="M39.896 48.924L.7 73.73l75.8 43.774 14.987-8.463z" class="B"/><g transform="translate(36.162 .968)"><g class="B"><path fill="#1a1a1a" d="M9.2 42.12l45.825-25.973 44.097 27.14L54.17 69.26z"/><path fill="#09bfff" d="M54.25 17.898h1.16v36.77h-1.16z"/><path d="M54.498 17.8L6.305 45.33.45 41.803 54.103 10.53l54.177 32.65-5.446 3.174z" class="I"/><path d="M50.794 90.78v-4.928H63.21v4.927a1.34 1.34 0 0 1-1.341 1.342h-9.734a1.34 1.34 0 0 1-1.342-1.342v.001z" fill="#0c2c8a"/></g><g transform="matrix(.707107 -.707107 .707107 .707107 19.837578 32.371351)"><g transform="translate(0 5.751)"><g class="B"><use xlink:href="#V" fill="#d00839"/><use xlink:href="#V" fill="#f14284"/></g><mask id="c" class="C"><use xlink:href="#E"/></mask><use xlink:href="#W" mask="url(#c)" class="B D J"/></g><g class="B"><path fill="#d52366" d="M38.22 2.665L43.405.118 40.8 5.366z"/><use xlink:href="#X" fill="#ff2a5f"/></g><g transform="translate(29 2)"><g fill="#fc96bc" class="B"><path d="M1 3.7C.34 4.708.317 5.636.934 6.486s1.566.91 2.845.184c-.65 1.085-.623 2.002.083 2.75s1.626.772 2.762.067c-.838 1.163-.888 2.02-.15 2.566s1.5.41 2.283-.42L11.9 3.282 9.32.648 1 3.7z" id="G"/></g><mask id="e" class="C"><use xlink:href="#F"/></mask><use xlink:href="#Y" mask="url(#e)" class="B D J"/></g></g><g transform="matrix(-.978148 .207912 -.207912 -.978148 55.428021 67.537717)"><rect width="12.774" height="44.358" rx="1.092" fill="#272727" class="B"/><mask id="f" class="C"><use xlink:href="#G"/></mask><path d="M2.884 0h11.683a1.09 1.09 0 0 1 1.092 1.092v42.174c0 .603-.5 1.092-1.092 1.092H2.884V0z" fill="#505050" mask="url(#f)" class="B"/><mask id="g" class="C"><use xlink:href="#H"/></mask><path d="M3.71 0H15.4a1.09 1.09 0 0 1 1.092 1.092v42.174c0 .603-.5 1.092-1.092 1.092H3.71V0z" mask="url(#g)" class="B P"/><mask id="h" class="C"><use xlink:href="#I"/></mask><g mask="url(#h)" class="E F K Q"><path d="M-.412 1.424h2.678m-2.678 1.22H1.03m-1.442 1.22H1.03m-1.442 1.22H1.03m-1.442 1.22H1.03"/></g><mask id="i" class="C"><use xlink:href="#J"/></mask><g mask="url(#i)"><path d="M-.412 7.936h2.678" class="G"/><path d="M-.412 9.156H1.03" class="Q"/><path d="M-.412 10.377H1.03m-1.442 1.22H1.03m-1.442 1.22H1.03" class="G"/></g><mask id="j" class="C"><use xlink:href="#K"/></mask><g mask="url(#j)" class="E F G K"><path d="M-.412 14.447h2.678m-2.678 1.22H1.03m-1.442 1.22H1.03M-.412 18.1H1.03m-1.442 1.22H1.03"/></g><mask id="k" class="C"><use xlink:href="#L"/></mask><g mask="url(#k)" class="E F G K"><path d="M-.412 20.958h2.678m-2.678 1.22H1.03M-.412 23.4H1.03m-1.442 1.22H1.03m-1.442 1.22H1.03"/></g><mask id="l" class="C"><use xlink:href="#M"/></mask><g mask="url(#l)" class="E F G K"><path d="M-.412 27.47h2.678M-.412 28.7H1.03M-.412 29.9H1.03m-1.442 1.222H1.03m-1.442 1.22H1.03"/></g><mask id="m" class="C"><use xlink:href="#N"/></mask><g mask="url(#m)" class="E F G K"><path d="M-.412 33.98h2.678M-.412 35.2H1.03m-1.442 1.22H1.03m-1.442 1.22H1.03m-1.442 1.22H1.03"/></g><g class="B L"><rect id="P" width="12.774" height="44.358" rx="1.092"/></g><mask id="o" class="C"><use xlink:href="#O"/></mask><g mask="url(#o)"><path d="M-.412 40.492h2.678m-2.678 1.22H1.03m-1.442 1.22H1.03m-1.442 1.22H1.03" class="G"/><path d="M-.412 45.375H1.03" class="Q"/></g></g><g transform="translate(54.249 28.404)"><path d="M6.24 0h5.754a.78.78 0 0 1 .78.78v14.98H0V6.24A6.24 6.24 0 0 1 6.24 0z" class="B M"/><mask id="p" class="C"><use xlink:href="#P"/></mask><path d="M12.046 0H17.8a.78.78 0 0 1 .78.78v14.98H5.806V6.24A6.24 6.24 0 0 1 12.046 0z" mask="url(#p)" class="B H"/></g><g class="B"><path d="M52.507 41.828h16.258v28.015H52.507z" class="L"/><path d="M55.4 47.08h11.032v18.094H55.4V47.08zm28.26-32.855v4.927H72.486v-4.927c0-.74.6-1.342 1.342-1.342h8.5a1.34 1.34 0 0 1 1.341 1.342h.002z" class="H"/></g><g transform="matrix(-.707107 .707107 -.707107 -.707107 108.794957 42.92445)"><g transform="translate(0 5.751)"><g class="B"><use xlink:href="#V" class="P"/><use xlink:href="#V" class="L"/></g><mask id="q" class="C"><use xlink:href="#Q"/></mask><use xlink:href="#W" mask="url(#q)" class="B D M"/></g><g class="B"><path fill="#000" d="M38.22 2.665L43.405.118 40.8 5.366z"/><use xlink:href="#X" fill="#f7e0bc"/></g><g transform="translate(29 2)"><mask id="r" class="C"><use xlink:href="#R"/></mask><use xlink:href="#Y" mask="url(#r)" class="B D J"/></g></g><g transform="translate(22.66 .277)"><path d="M3.2 19.875a45.24 45.24 0 0 0-1.334-8.788C.8 6.836 5.043 1.726 6.04 1.2c1.036-.535.15 3.153.705 6.99.308 2.137 1.56 3.23 1.564 5.2s-1.482.913-1.524 3.427l-.006 3.04-3.57.006z" fill="#272727" class="B"/><g transform="translate(1 1)"><mask id="s" class="C"><use xlink:href="#S"/></mask><path d="M7.382 18.224C5.59 15.49 4.33 12.705 3.606 9.87 2.518 5.62 4.762.517 5.758.001c1.035-.536 2.16 3.147 2.714 6.986.308 2.137 1.56 3.23 1.564 5.2s.96.475.92 2.99c-.028 1.677-.03 2.69-.006 3.04l-3.57.006z" mask="url(#s)" class="B M"/></g></g><g transform="translate(22.508 18.786)"><use xlink:href="#Z" class="B P"/><mask id="t" class="C"><use xlink:href="#T"/></mask><path d="M2.504-.18C4.294.922 6.202 1.1 8.23.385" stroke-opacity=".137" stroke="#fff" stroke-width="1.31" mask="url(#t)" class="E F"/><use xlink:href="#Z" class="B L"/><mask id="u" class="C"><use xlink:href="#U"/></mask><path d="M-.294 29.117c-.652-.17-1.045-.834-.88-1.487a1.21 1.21 0 0 1 1.468-.891c4.44 1.125 7.575 1.338 9.32.714.304-.108.638-.09.928.05s.512.39.617.696a1.23 1.23 0 0 1-.738 1.564c-2.3.826-5.85.586-10.715-.647z" mask="url(#u)" class="B M"/></g><g class="B"><path d="M108.068 43.243l-.182 33.766-53.472 31.443.182-33.765z" class="H"/><path fill="#21132a" d="M55.015 74.347l-.182 33.766L.476 75.26.658 41.495z"/><path d="M54.185 67.43L102.38 39.9l5.854 3.53L54.58 74.702.406 41.54l5.218-2.647z" class="I"/><g class="C"><ellipse transform="matrix(.965926 .258819 -.258819 .965926 23.407 -17.423813)" cx="77.877" cy="80.185" rx="3.572" ry="4.932" class="D"/><ellipse transform="matrix(.965926 .258819 -.258819 .965926 21.325856 -21.342478)" cx="91.719" cy="70.322" rx="3.572" ry="4.932" class="D"/></g></g></g></g><g class="B"><path d="M294.834 47.303C287.8 42.505 283.8 34.46 285.26 26.24c2.046-11.603 14.152-19.168 27.04-16.895s21.675 13.52 19.63 25.124a19.41 19.41 0 0 1-.767 2.965c10.184 4.187 16.647 12.53 15.19 20.8-1.8 10.152-14.872 16.332-29.217 13.802S292.6 59.215 294.4 49.063a13.39 13.39 0 0 1 .434-1.759z" fill="#382b44"/><path d="M323.562 37.444c10.183 4.187 16.647 12.53 15.19 20.79-1.8 10.153-14.872 16.333-29.218 13.803-8.855-1.56-16.123-6.076-19.967-11.69-3.982.804-8.415.88-12.974.075-14.346-2.53-24.524-12.81-22.734-22.964 1.597-9.054 12.174-14.95 24.62-14.323 3.475-9.806 14.523-15.84 26.217-13.78 12.887 2.272 21.676 13.52 19.63 25.124a19.41 19.41 0 0 1-.767 2.965z" class="I"/><path d="M428.5 120.3c-5.704-3.876-8.942-10.37-7.773-17.003 1.65-9.362 11.456-15.457 21.902-13.616s17.576 10.924 15.925 20.286a15.66 15.66 0 0 1-.62 2.392c8.256 3.385 13.5 10.122 12.325 16.785-1.444 8.192-12.042 13.17-23.67 11.12s-19.884-10.352-18.44-18.544a10.69 10.69 0 0 1 .352-1.418z" fill="#382b44"/><path d="M451.784 112.372c8.256 3.385 13.5 10.122 12.325 16.785-1.444 8.192-12.042 13.17-23.67 11.12-7.177-1.266-13.07-4.913-16.2-9.446-3.227.645-6.82.704-10.515.052-11.628-2.05-19.884-10.353-18.44-18.544 1.288-7.306 9.858-12.055 19.945-11.543 2.812-7.908 11.762-12.772 21.24-11.1 10.445 1.842 17.575 10.924 15.925 20.284-.145.824-.354 1.623-.62 2.393z" class="I"/><path stroke="#979797" stroke-width=".6" fill="#6c4687" opacity=".037" d="M411.222 298.778L393 310.333 413.444 323l12.223-5.778z"/><path d="M433 300.556l-.98 8.596c-.3 2.63-1.666 5.025-3.78 6.622s-4.788 2.258-7.4 1.828a11.67 11.67 0 0 1-9.773-11.809l.155-6.126 21.778.89z" class="H"/><ellipse fill="#443053" cx="422.111" cy="300.544" rx="10.889" ry="6.432"/><ellipse fill="#22162b" cx="422.074" cy="300.298" rx="9.467" ry="5.609"/></g><path d="M416.34 297.227c-1.466 1.157-1.955 2.047-1.466 2.67.733.936-.267.802 0 1.603.178.534.667.935 1.467 1.202m10.13-.264c.316-.796.942-1.283 1.877-1.462 1.403-.268 1.484-1.027 1.537-1.87.035-.562-.42-1.144-1.362-1.745m-10.536 3.746c.837-.183 1.6.063 2.26.738 1.007 1.013 1.682.656 2.4.23.486-.285.714-.987.685-2.106m-6.788 3.7c2.035-.18 3.388.07 4.06.744 1.006 1.013 2.163 1.478 2.83.367.444-.74 1.407-1.11 2.888-1.11" stroke-opacity=".134" stroke="#fff" stroke-width=".72" class="E F"/><g fill="#52d8fe" class="B"><path d="M422.333 301.667c.303 0 2.72-11.254 2.72-18.16S423.62 271 421.852 271s-3.2 5.6-3.2 12.506 3.38 18.16 3.68 18.16v.001z"/><path d="M422.324 301.67c.247.173 5.044-6.268 7.943-10.41s4.438-8.066 3.435-8.768-4.165 2.086-7.064 6.227-4.56 12.778-4.314 12.95z"/><path d="M422.34 301.638c.253-.14-2.536-7.588-4.987-12s-5.305-7.524-6.375-6.93.05 4.658 2.5 9.08 8.6 10 8.863 9.86h-.001z"/></g></g></svg>