<?xml version="1.0" encoding="UTF-8"?>
<svg width="931px" height="533px" viewBox="0 0 931 533" version="1.1" xmlns="http://www.w3.org/2000/svg" xmlns:xlink="../../external.html?link=http://www.w3.org/1999/xlink">
    <!-- Generator: Sketch 52.2 (67145) - http://www.bohemiancoding.com/sketch -->
    <title>Artboard</title>
    <desc>Created with Sketch.</desc>
    <g id="Artboard" stroke="none" stroke-width="1" fill="none" fill-rule="evenodd">
        <g id="810" transform="translate(430.000000, 231.000000)">
            <g id="Group">
                <path d="M0.3375,32.36625 C3.560625,28.861875 10.085625,23.6475 19.27125,25.419375 C31.1625,27.28125 36,35.971875 36,35.971875 C36,35.971875 23.86125,36.5625 17.0325,47.041875 C13.7819044,52.5005452 13.0830951,59.108404 15.12,65.12625 C14.0400094,64.3512859 13.003445,63.5175275 12.015,62.62875 C3.51329143,54.9847724 -0.825874383,43.739728 0.3375,32.36625 Z" id="Path" fill="#FFCB02"></path>
                <path d="M36.7425,16.340625 C41.045625,27.579375 35.9325,36.129375 35.9325,36.129375 C35.9325,36.129375 29.3625,25.903125 16.891875,25.228125 C10.5575108,25.1449294 4.50271577,27.8322969 0.315,32.585625 C1.54059067,19.831583 9.47293863,8.69842547 21.1275,3.375 C25.74,4.3875 33.64875,7.4025 36.7425,16.340625 Z" id="Path" fill="#FF9E02"></path>
                <path d="M53.3925,26.83125 C45.81,36.185625 35.8425,36.03375 35.8425,36.03375 C35.8425,36.03375 41.4225,25.23375 35.769375,14.09625 C32.6621081,8.54952528 27.279865,4.64339011 21.043125,3.40875 C32.7034141,-1.92738063 46.3251973,-0.634254798 56.773125,6.800625 C58.213125,11.300625 59.574375,19.65375 53.37,26.825625 L53.3925,26.83125 Z" id="Path" fill="#FF4B42"></path>
                <path d="M52.605,46.423125 C40.71375,44.533125 35.859375,35.83125 35.859375,35.83125 C35.859375,35.83125 48.009375,35.2575 54.815625,24.789375 C58.0554203,19.3504314 58.7600543,12.7683696 56.745,6.766875 C57.8697205,7.567087 58.9477324,8.43099892 59.97375,9.354375 C68.3977341,16.9251615 72.7412541,28.0363948 71.685,39.313125 C68.52375,42.800625 61.93125,48.200625 52.59375,46.400625 L52.605,46.423125 Z" id="Path" fill="#C063D6"></path>
                <path d="M35.15625,55.6875 C30.853125,44.44875 35.96625,35.904375 35.96625,35.904375 C35.96625,35.904375 42.5025,45.9 54.97875,46.575 C61.3518112,46.6704663 67.4528625,43.9965108 71.701875,39.245625 C70.5302991,52.0967198 62.5493128,63.3293782 50.799375,68.664375 C46.186875,67.651875 38.28375,64.6425 35.161875,55.693125 L35.15625,55.6875 Z" id="Path" fill="#17A4F6"></path>
                <path d="M14.985,65.041875 C13.5,60.525 12.15,52.34625 18.28125,45.28125 C25.86375,35.9325 36.045,35.971875 36.045,35.971875 C36.045,35.971875 30.645,46.693125 36.2925,57.830625 C39.3756629,63.3854752 44.7251748,67.322141 50.945625,68.61375 C39.1954708,73.9960299 25.4585394,72.6423201 14.985,65.07 L14.985,65.041875 Z" id="Path" fill="#4FCA24"></path>
                <animateTransform attributeName="transform" type="rotate" from="0 36 36" to="360 36 36" dur="600ms" repeatCount="indefinite"></animateTransform>
            </g>
        </g>
    </g>
</svg>